<svg xmlns="http://www.w3.org/2000/svg" xmlns:xlink="http://www.w3.org/1999/xlink"><symbol id="icon-like" viewBox="0 0 24 21">
<path d="M1 6.4C1 2 4.5 1 6.5 1C9 1 11 3 12 4.5C13 3 15 1 17.5 1C19.5 1 23 2 23 6.4C23 13 12 19 12 19C12 19 1 13 1 6.4Z" stroke-width="2"/>
</symbol><symbol id="icon-minus" viewBox="0 0 21 4">
<path d="M17.25 0.75H19.25C19.5815 0.75 19.8995 0.881696 20.1339 1.11612C20.3683 1.35054 20.5 1.66848 20.5 2C20.5 2.33152 20.3683 2.64946 20.1339 2.88388C19.8995 3.1183 19.5815 3.25 19.25 3.25H11.75H1.75C1.41848 3.25 1.10054 3.1183 0.866117 2.88388C0.631696 2.64946 0.5 2.33152 0.5 2C0.5 1.66848 0.631696 1.35054 0.866117 1.11612C1.10054 0.881696 1.41848 0.75 1.75 0.75H11.75H17.25Z"/>
</symbol><symbol id="icon-plus" viewBox="0 0 21 20">
<path d="M19.25 8.75H11.75V1.25C11.75 0.918479 11.6183 0.600537 11.3839 0.366117C11.1495 0.131696 10.8315 0 10.5 0C10.1685 0 9.85054 0.131696 9.61612 0.366117C9.3817 0.600537 9.25 0.918479 9.25 1.25V8.75H1.75C1.41848 8.75 1.10054 8.8817 0.866117 9.11612C0.631696 9.35054 0.5 9.66848 0.5 10C0.5 10.3315 0.631696 10.6495 0.866117 10.8839C1.10054 11.1183 1.41848 11.25 1.75 11.25H9.25V18.75C9.25 19.0815 9.3817 19.3995 9.61612 19.6339C9.85054 19.8683 10.1685 20 10.5 20C10.8315 20 11.1495 19.8683 11.3839 19.6339C11.6183 19.3995 11.75 19.0815 11.75 18.75V11.25H19.25C19.5815 11.25 19.8995 11.1183 20.1339 10.8839C20.3683 10.6495 20.5 10.3315 20.5 10C20.5 9.66848 20.3683 9.35054 20.1339 9.11612C19.8995 8.8817 19.5815 8.75 19.25 8.75Z"/>
</symbol></svg>