<svg width="24" height="30" fill="none" xmlns="http://www.w3.org/2000/svg"><path fill-rule="evenodd" clip-rule="evenodd" d="M21.847 5.216C19.582 1.901 15.993 0 12 0 8.008 0 4.42 1.901 2.154 5.216-.1 8.514-.62 12.69.759 16.378c.37 1.007.955 1.986 1.739 2.903l8.713 10.35a1.032 1.032 0 001.579 0l8.71-10.347c.787-.922 1.373-1.9 1.739-2.9 1.382-3.695.861-7.87-1.392-11.168zM6.193 12.098c0-3.24 2.606-5.874 5.809-5.874 3.202 0 5.808 2.635 5.808 5.874 0 3.24-2.605 5.874-5.808 5.874s-5.809-2.635-5.809-5.874z" fill="#D04241"/></svg>