<svg width="21" height="17" fill="none" xmlns="http://www.w3.org/2000/svg"><path d="M2.09 7.603c5.235-2.328 8.726-3.863 10.472-4.605C17.549.88 18.585.512 19.26.5c.148-.002.48.035.696.213.181.15.231.354.255.497a3.3 3.3 0 01.03.722c-.27 2.899-1.44 9.933-2.034 13.18-.252 1.374-.747 1.835-1.227 1.88-1.043.098-1.835-.704-2.845-1.38-1.58-1.057-2.473-1.716-4.007-2.748-1.772-1.193-.623-1.848.387-2.92.264-.28 4.859-4.547 4.948-4.934.01-.048.021-.229-.084-.324-.105-.095-.26-.063-.372-.037-.158.037-2.683 1.74-7.574 5.111-.716.503-1.365.748-1.947.735-.64-.014-1.874-.37-2.79-.675C1.57 9.447.675 9.25.754 8.616c.04-.33.486-.668 1.336-1.013z" fill="#8798AD"/></svg>